{"glyphs":{":":{"x_min":0,"x_max":317,"ha":317,"o":"m 293 425 q 301 418 301 404 q 301 386 290 364 q 280 342 266 326 q 242 299 224 289 q 205 279 189 279 q 178 279 167 286 q 156 293 156 306 q 156 323 172 348 q 185 368 205 389 q 218 403 240 416 q 263 429 278 429 q 288 429 293 425 z m 153 137 q 161 129 161 118 q 161 103 148 84 q 136 65 119 48 q 102 31 82 19 q 61 7 44 7 q 32 7 26 14 q 19 22 19 34 q 19 51 32 70 q 44 90 60 106 q 77 122 98 132 q 120 143 135 143 q 147 143 153 137 z"},"$":{"x_min":0,"x_max":609,"ha":609,"o":"m 492 800 q 504 803 504 795 q 504 789 494 764 q 485 740 485 728 q 485 719 489 712 q 489 711 538 701 q 587 691 592 671 q 597 653 581 618 q 565 582 541 566 q 537 563 496 573 q 455 583 450 579 q 441 572 425 525 q 409 478 413 468 q 463 450 500 418 q 536 385 536 335 q 536 263 467 203 q 388 156 309 110 q 299 60 288 30 q 277 -1 260 2 q 239 5 234 18 q 228 30 228 41 q 228 54 232 76 q 237 97 234 99 q 231 102 225 103 q 221 104 213 104 q 201 104 192 102 q 182 100 177 99 q 173 99 163 44 q 153 -10 127 -2 q 115 2 110 16 q 104 29 104 46 q 104 56 106 80 q 109 104 107 107 q 69 124 44 137 q 20 150 20 163 q 20 178 36 220 q 51 262 64 271 q 69 274 74 274 q 84 274 117 261 q 132 255 137 256 q 144 257 160 310 q 177 363 174 373 q 132 383 102 406 q 73 429 73 473 q 73 556 139 613 q 214 654 290 695 q 299 715 310 736 q 320 757 346 766 q 349 768 352 768 q 356 768 357 768 q 366 768 370 757 q 373 746 373 731 q 373 721 374 712 q 374 703 377 702 q 380 701 388 701 q 401 701 418 706 q 424 737 438 762 q 452 788 492 800 z m 314 567 q 306 562 298 526 q 290 491 294 484 q 295 482 310 479 q 324 476 333 476 q 340 476 342 478 q 346 482 357 526 q 368 570 366 573 q 363 577 353 577 q 342 577 331 574 q 320 571 314 567 z m 164 500 q 167 489 188 484 q 195 483 210 482 l 222 547 q 201 539 191 534 q 160 517 164 500 z m 432 341 q 432 359 420 367 q 407 375 392 375 q 383 375 383 372 l 362 292 q 386 300 397 305 q 432 322 432 341 z m 253 375 q 247 360 233 310 q 216 250 219 249 q 223 247 247 252 q 271 257 276 261 q 279 263 294 320 q 309 376 307 378 q 306 379 286 379 q 275 379 264 378 q 254 378 253 375 z"},"?":{"x_min":0,"x_max":460,"ha":460,"o":"m 281 672 q 242 672 197 660 q 152 648 150 639 q 147 628 164 619 q 180 610 180 604 q 180 599 159 599 q 128 599 96 606 q 64 614 64 624 q 64 705 146 750 q 217 789 321 789 q 381 789 418 743 q 446 708 446 675 q 446 621 426 575 q 395 502 304 401 q 219 305 200 270 q 191 253 187 210 q 187 194 172 194 q 155 194 137 210 q 119 225 119 242 q 119 304 158 360 q 176 386 235 445 q 318 518 345 543 q 389 584 389 618 q 389 656 361 666 q 344 672 281 672 z m 22 63 q 22 82 47 127 q 72 172 89 172 q 105 172 124 151 q 143 130 143 116 q 143 100 118 50 q 93 -1 83 2 q 59 11 43 23 q 20 41 22 63 z"},"'":{"x_min":0,"x_max":155,"ha":155,"o":"m 44 639 q 35 649 28 660 q 21 671 21 682 q 21 713 58 746 q 94 778 121 778 q 127 778 130 777 q 146 770 146 752 q 146 739 139 722 q 132 706 121 690 q 104 662 74 631 q 40 595 28 603 q 34 613 41 622 q 48 632 44 639 z"},"a":{"x_min":0,"x_max":507,"ha":507,"o":"m 16 165 q 16 245 108 322 q 180 382 286 427 q 375 465 398 462 q 413 460 429 438 q 445 415 441 401 q 439 394 430 383 q 422 372 423 367 q 424 357 426 346 q 428 334 428 321 q 428 292 392 235 q 356 178 356 156 q 356 141 368 130 q 375 123 389 123 q 415 123 459 151 q 473 160 498 179 l 498 144 q 498 131 435 71 q 362 1 313 1 q 289 1 273 17 q 265 25 262 36 q 259 48 259 63 q 259 86 266 114 q 272 142 271 143 q 265 147 199 84 q 128 17 102 17 q 76 17 46 68 q 16 118 16 165 z m 346 336 q 339 341 282 316 q 225 290 181 261 q 145 237 120 202 q 94 167 94 138 q 94 124 103 113 q 109 107 117 107 q 138 107 187 152 q 210 173 233 195 q 278 236 314 278 q 356 328 346 336 z"},"L":{"x_min":0,"x_max":856,"ha":856,"o":"m 141 83 q 132 81 73 66 q 26 54 12 54 q -3 54 -3 62 q -3 87 27 132 q 63 186 108 204 q 119 208 128 209 q 138 210 153 210 q 163 210 170 210 q 178 209 184 209 q 200 209 208 210 q 216 212 225 218 q 227 219 356 375 q 504 553 602 654 q 748 804 801 804 q 811 804 828 782 q 845 759 844 750 q 839 715 796 629 q 752 543 709 456 q 714 430 643 380 q 605 360 567 341 q 561 355 561 372 q 561 416 602 487 q 620 519 676 598 q 714 652 709 657 q 653 607 597 558 q 512 467 409 345 q 310 227 307 215 q 306 210 372 199 q 437 188 506 162 q 574 137 634 120 q 694 102 696 95 q 699 88 666 58 q 598 -4 576 -4 q 546 -4 464 18 q 381 40 296 62 q 210 85 165 85 q 155 85 141 83 z"},"3":{"x_min":0,"x_max":727,"ha":727,"o":"m 641 650 q 637 668 612 676 q 587 685 547 685 q 484 685 412 668 q 339 652 335 640 q 333 633 338 620 q 342 606 342 603 q 342 598 335 592 q 328 587 309 584 q 290 581 265 581 q 243 581 224 584 q 206 587 204 596 q 202 604 199 620 q 196 637 196 648 q 196 665 201 678 q 206 691 220 702 q 278 747 368 772 q 440 792 499 792 q 585 792 642 762 q 713 725 713 651 q 713 554 614 501 q 506 464 398 427 q 446 412 494 395 q 591 360 591 264 q 591 172 483 89 q 369 1 227 1 q 156 1 93 24 q 17 52 17 93 q 17 140 75 188 q 88 192 102 196 q 102 167 130 152 q 159 138 205 138 q 301 138 399 183 q 505 231 505 286 q 505 324 456 340 q 408 355 337 355 q 296 355 256 350 q 216 346 208 344 q 200 341 198 341 q 181 341 181 367 q 181 399 202 436 q 222 474 248 478 q 381 502 475 531 q 654 587 641 650 z"},";":{"x_min":0,"x_max":315,"ha":315,"o":"m 192 386 q 239 438 278 438 q 290 438 298 432 q 305 425 305 413 q 305 397 294 376 q 284 354 269 333 q 232 283 190 283 q 178 283 167 290 q 156 296 156 312 q 156 330 166 350 q 177 370 192 386 z m 47 -21 q 38 -10 30 2 q 22 15 22 27 q 22 62 62 100 q 103 139 133 139 q 136 139 142 137 q 159 130 159 108 q 159 93 151 73 q 143 53 132 36 q 111 2 81 -29 q 43 -68 30 -60 q 34 -53 39 -46 q 52 -31 47 -21 z"},"J":{"x_min":0,"x_max":486,"ha":486,"o":"m 130 318 q 135 316 160 332 q 170 339 175 333 q 185 322 120 257 q 55 192 32 199 q 7 207 7 263 q 7 321 34 408 q 62 496 99 557 q 155 651 246 719 q 338 787 403 787 q 438 787 456 770 q 474 753 474 725 q 474 654 428 533 q 401 461 342 338 q 298 245 300 240 q 303 232 358 252 q 391 264 402 264 q 412 264 415 259 q 393 243 372 227 q 313 198 255 170 q 221 120 188 71 q 111 -40 57 -104 q -22 -197 -59 -197 q -69 -197 -75 -190 q -90 -174 -90 -147 q -90 -108 -54 -52 q -27 -10 14 32 q 55 74 102 107 q 144 134 186 162 q 193 171 246 279 q 308 405 348 503 q 402 633 402 676 q 402 694 392 695 q 363 698 300 642 q 236 585 204 523 q 171 461 149 405 q 127 349 127 327 q 127 320 130 318 z"},"V":{"x_min":0,"x_max":751,"ha":751,"o":"m 37 547 q 49 571 117 621 q 189 674 281 722 q 388 778 473 801 q 496 807 522 778 q 549 750 549 718 q 549 699 484 584 q 390 418 363 362 q 298 229 298 165 q 298 137 311 121 q 315 117 321 117 q 349 117 420 214 q 476 291 539 397 q 595 492 598 504 q 620 587 640 632 q 672 702 709 702 q 713 702 724 699 q 736 696 736 676 q 736 646 705 581 q 704 579 665 503 q 582 341 473 182 q 352 5 312 5 q 279 5 240 48 q 201 91 201 131 q 201 201 256 327 q 279 381 353 525 q 401 620 392 628 q 379 639 267 569 q 217 528 167 488 q 169 486 211 472 q 213 467 215 463 q 202 454 126 425 q 50 396 33 392 q 24 390 20 402 q 15 415 15 438 q 15 468 20 496 q 26 523 37 547 z"},"\"":{"x_min":0,"x_max":280,"ha":280,"o":"m 44 639 q 35 649 28 660 q 21 671 21 682 q 21 713 58 746 q 94 778 121 778 q 127 778 130 777 q 146 770 146 752 q 146 739 139 722 q 132 706 121 690 q 104 662 74 631 q 40 595 28 603 q 34 613 41 622 q 48 632 44 639 z m 162 637 q 153 647 146 658 q 139 669 139 680 q 139 711 176 744 q 212 776 239 776 q 245 776 248 775 q 264 768 264 750 q 264 737 257 720 q 250 704 239 688 q 222 660 192 629 q 158 593 146 601 q 152 611 159 620 q 166 630 162 637 z"},"7":{"x_min":0,"x_max":565,"ha":565,"o":"m 117 754 q 144 779 340 790 q 413 794 478 794 q 511 794 532 763 q 552 732 552 695 q 552 667 538 650 q 538 649 482 593 q 427 537 385 486 q 325 413 283 340 q 233 254 211 190 q 195 143 195 108 q 195 91 200 78 q 204 65 203 63 q 190 42 143 22 q 96 2 58 2 q 36 2 24 11 q 11 20 11 50 q 11 106 60 206 q 106 299 165 375 q 245 477 314 545 q 400 630 400 632 q 400 650 350 650 q 321 650 304 649 q 218 644 208 644 q 156 644 118 626 q 82 606 47 587 q 42 587 34 590 q 27 593 27 603 q 27 627 70 691 q 107 746 117 754 z"},"S":{"x_min":0,"x_max":745,"ha":745,"o":"m 128 635 q 166 688 295 738 q 436 793 573 793 q 610 793 666 782 q 723 771 733 763 q 736 760 736 748 q 736 728 732 706 q 728 683 722 668 q 715 652 614 598 q 513 543 508 552 q 504 559 535 589 q 566 619 564 627 q 561 636 530 636 q 446 636 331 595 q 199 548 199 494 q 199 467 309 439 q 464 400 513 377 q 623 326 623 242 q 623 119 448 52 q 305 -3 113 -3 q 48 -3 4 9 q -54 25 -54 57 q -54 64 -44 88 q -19 147 4 158 q 27 170 41 175 q 66 185 78 185 q 97 185 97 167 q 97 149 163 149 q 268 149 387 182 q 522 219 522 264 q 522 311 411 337 q 308 358 205 380 q 93 412 93 470 q 93 503 105 561 q 117 619 128 635 z"},"Z":{"x_min":0,"x_max":635,"ha":635,"o":"m 38 401 q 32 422 32 446 q 32 476 38 506 q 45 535 59 573 q 81 632 232 707 q 384 782 489 782 q 553 782 591 745 q 629 708 629 650 q 629 583 569 520 q 526 475 457 435 q 405 405 397 405 q 419 398 432 392 q 472 374 488 350 q 505 327 515 293 q 518 282 522 264 q 539 272 548 276 q 578 289 588 289 q 595 289 595 285 q 596 272 559 251 q 539 240 519 230 q 516 210 513 191 q 500 141 470 90 q 428 18 354 -50 q 291 -108 200 -156 q 120 -198 91 -198 q 71 -198 48 -174 q 24 -149 24 -140 q 24 -105 79 -38 q 134 29 201 80 q 258 124 394 200 q 431 221 431 233 q 431 264 417 278 q 403 292 379 292 q 338 292 260 254 q 175 212 90 170 q 82 170 82 177 q 82 203 94 234 q 106 265 117 292 q 121 304 182 341 q 235 373 312 414 q 399 461 454 503 q 527 559 527 594 q 527 621 492 621 q 463 621 421 607 q 379 593 284 549 q 195 509 127 464 q 37 405 38 401 z m 240 32 q 191 -16 158 -53 q 115 -102 123 -113 q 132 -125 194 -88 q 256 -50 300 -8 q 343 35 380 89 q 418 143 406 153 q 399 159 341 116 q 283 73 240 32 z"},"x":{"x_min":0,"x_max":355,"ha":355,"o":"m 101 187 q 107 193 114 238 q 121 282 121 312 q 121 332 117 333 q 103 339 74 325 q 46 311 19 298 q 16 318 115 405 q 168 451 191 451 q 200 451 205 445 q 217 429 217 397 q 217 383 214 357 q 211 331 211 324 q 211 312 215 311 q 221 307 278 356 q 336 404 358 404 q 368 404 372 398 q 376 391 376 385 q 376 361 343 330 q 310 299 296 302 q 283 304 259 281 q 229 253 207 221 q 203 215 200 192 q 196 168 196 156 q 196 140 198 130 q 201 120 208 114 q 216 107 230 107 q 256 107 298 134 q 340 162 340 163 l 340 137 q 340 124 274 63 q 201 -5 164 0 q 126 5 112 52 q 99 98 96 99 q 89 101 46 67 q -1 29 -26 26 q -34 25 -34 32 q -34 47 -7 82 q 20 117 41 130 q 55 139 70 154 q 86 170 101 187 z"},")":{"x_min":0,"x_max":353,"ha":353,"o":"m 191 382 q 211 451 220 504 q 228 558 228 599 q 228 644 217 678 q 213 690 195 729 q 192 735 192 743 q 192 763 212 781 q 232 799 255 799 q 281 799 305 754 q 335 699 335 610 q 335 557 326 503 q 318 449 295 377 q 250 232 179 116 q 108 0 69 0 q 49 0 38 6 q 26 12 26 25 q 26 30 59 89 q 97 158 128 222 q 172 314 191 382 z"},"&":{"x_min":0,"x_max":660,"ha":660,"o":"m 307 664 q 364 739 439 770 q 496 793 570 793 q 592 793 620 756 q 647 720 647 690 q 647 636 581 577 q 535 536 458 492 q 394 455 394 454 q 412 398 422 366 q 433 335 439 322 q 442 316 450 316 q 473 316 541 380 q 573 410 606 440 q 620 413 620 384 q 620 340 586 290 q 551 241 516 193 q 521 176 528 170 q 534 164 543 164 q 566 173 573 175 q 580 177 581 170 q 586 124 546 74 q 507 23 484 30 q 464 36 442 65 q 421 94 416 95 q 363 60 305 32 q 240 0 181 0 q 137 0 84 71 q 28 146 28 213 q 28 283 84 349 q 124 397 190 440 q 221 458 253 477 q 255 520 264 570 q 274 621 307 664 z m 544 746 q 531 754 493 732 q 455 710 431 680 q 412 657 399 626 q 386 594 386 574 q 386 568 388 564 q 395 554 438 584 q 480 613 505 644 q 530 674 543 698 q 553 717 553 729 q 553 740 544 746 z m 281 370 q 254 374 192 297 q 130 220 139 190 q 146 168 184 168 q 222 168 271 188 q 320 209 326 225 q 327 227 327 235 q 327 266 310 317 q 294 368 281 370 z"},"v":{"x_min":0,"x_max":470,"ha":470,"o":"m 313 142 q 276 105 241 72 q 169 5 131 5 q 84 5 51 68 q 22 124 22 195 q 22 269 85 357 q 139 433 172 445 q 187 450 203 450 q 225 450 242 442 q 258 435 262 421 q 267 404 237 358 q 225 339 206 312 q 186 284 164 260 q 141 235 119 211 q 105 180 105 156 q 105 126 129 108 q 148 95 206 144 q 264 194 269 210 q 284 264 300 298 q 315 331 336 358 q 371 405 398 426 q 425 446 443 446 q 450 446 458 443 q 472 436 472 413 q 472 374 436 306 q 405 247 383 226 q 377 220 377 212 q 377 202 386 194 q 396 185 407 185 q 432 185 453 193 q 461 196 469 199 l 469 154 q 452 142 442 136 q 410 118 385 118 q 365 118 348 126 q 330 134 313 142 z"},"O":{"x_min":0,"x_max":692,"ha":692,"o":"m 12 217 q 12 355 109 497 q 197 626 328 712 q 458 799 559 799 q 571 799 577 798 q 595 798 626 755 q 656 712 651 696 q 650 693 598 673 q 589 666 581 659 q 623 651 647 636 q 671 620 674 594 q 677 568 677 556 q 677 544 677 532 q 677 327 515 155 q 362 -8 206 -8 q 190 -8 182 -7 q 91 3 45 88 q 12 149 12 217 z m 566 592 q 551 601 530 601 q 460 601 356 513 q 257 429 257 387 q 251 387 246 387 q 230 393 226 393 q 221 393 218 390 q 170 333 144 262 q 117 191 117 136 q 117 95 131 78 q 141 65 165 65 q 219 65 312 128 q 406 191 463 263 q 512 326 550 408 q 587 490 587 543 q 587 578 566 592 z"},"(":{"x_min":0,"x_max":427,"ha":427,"o":"m 22 236 q 22 390 111 533 q 178 640 284 727 q 370 797 393 794 q 404 793 410 784 q 415 775 415 763 q 415 744 340 669 q 247 577 201 497 q 125 366 125 214 q 125 147 140 110 q 156 78 173 47 q 173 27 158 14 q 142 0 122 0 q 81 0 52 72 q 22 144 22 236 z"},"C":{"x_min":0,"x_max":684,"ha":684,"o":"m 549 472 q 474 398 439 370 q 373 317 334 317 q 315 317 303 328 q 297 333 294 340 q 291 348 291 355 q 291 397 360 458 q 428 520 446 513 q 464 506 528 592 q 591 678 591 719 q 591 728 586 733 q 581 738 571 738 q 527 738 432 659 q 327 572 236 450 q 199 400 172 341 q 137 265 137 208 q 137 177 146 153 q 156 129 180 110 q 205 91 241 91 q 300 91 387 142 q 441 174 521 235 q 586 285 590 283 q 563 245 537 207 q 464 127 382 73 q 273 1 186 1 q 153 1 124 10 q 96 20 69 41 q 37 67 22 103 q 6 139 6 183 q 6 265 58 364 q 107 458 188 542 q 306 665 409 732 q 512 799 585 799 q 615 799 640 785 q 673 766 673 717 q 673 663 634 590 q 596 518 549 472 z"},"W":{"x_min":0,"x_max":1117,"ha":1117,"o":"m 71 687 q 90 715 193 755 q 318 803 438 803 q 503 803 538 767 q 570 735 570 683 q 570 600 515 519 q 446 434 421 399 q 411 385 316 269 q 253 192 253 169 q 253 159 263 156 q 297 147 441 304 q 568 449 696 594 q 834 747 858 729 q 871 719 881 702 q 891 684 891 666 q 891 657 888 651 q 882 637 809 516 q 728 382 682 297 q 615 173 615 140 q 615 132 618 129 q 623 123 633 123 q 670 123 758 213 q 846 303 911 403 q 986 518 986 576 q 986 595 980 603 q 976 610 1010 660 q 1044 709 1062 709 q 1073 709 1078 688 q 1084 667 1084 638 q 1084 615 1082 596 q 1080 578 1077 561 q 1054 464 978 332 q 899 193 810 101 q 709 -4 635 -4 q 628 -4 625 -4 q 604 -4 564 21 q 539 37 530 50 q 516 71 516 108 q 516 151 532 209 q 562 317 561 318 q 559 319 485 238 q 388 132 333 82 q 240 -2 195 -2 q 179 -2 171 6 q 142 33 130 66 q 119 98 119 142 q 119 192 208 302 q 291 397 374 492 q 464 596 464 629 q 464 638 460 642 q 448 655 422 655 q 375 655 271 608 q 260 603 106 526 q 64 511 22 497 q 18 506 18 523 q 18 559 34 608 q 50 656 71 687 z"},"A":{"x_min":0,"x_max":847,"ha":847,"o":"m 451 8 q 438 18 432 30 q 427 43 427 61 q 427 97 458 164 q 488 231 488 243 q 488 256 474 256 l 278 252 q 272 252 204 171 q 120 71 67 19 q -17 -63 -60 -63 q -70 -63 -70 -47 q -70 -16 -19 51 q 32 118 46 118 q 77 121 126 174 q 176 226 163 242 q 155 252 137 252 q 118 251 108 251 q 91 251 82 259 q 68 271 113 328 q 162 390 214 399 q 235 402 245 402 q 266 402 268 390 q 270 378 280 378 q 320 378 364 425 q 435 501 534 592 q 614 665 710 736 q 796 799 809 799 q 820 799 830 781 q 841 763 841 752 q 841 717 806 650 q 771 583 736 519 q 701 455 701 433 q 701 423 708 420 q 716 418 747 417 q 778 416 775 399 q 771 382 750 349 q 726 312 698 286 q 688 277 662 277 q 636 277 626 270 q 607 257 579 187 q 551 117 561 111 q 573 104 618 133 q 710 193 710 199 l 710 168 q 710 165 691 144 q 684 136 654 105 q 617 67 576 38 q 519 -2 483 -2 q 464 -2 451 8 z m 700 640 q 706 652 706 656 q 689 649 673 643 q 649 625 552 540 q 519 511 482 472 q 434 421 434 406 q 434 399 443 400 l 575 415 z"},"f":{"x_min":0,"x_max":377,"ha":377,"o":"m 28 260 q 31 293 122 370 q 173 413 197 460 q 262 587 321 682 q 398 804 418 794 q 427 789 431 776 q 435 764 435 746 q 435 714 426 679 q 418 644 408 623 q 395 596 339 516 q 289 446 239 374 q 189 303 186 289 q 183 272 208 238 q 233 203 248 200 q 261 198 315 234 q 341 251 367 268 l 367 220 q 336 196 320 184 q 271 146 267 136 q 264 118 261 99 q 249 28 201 -54 q 171 -106 110 -152 q 49 -199 14 -199 q 10 -199 4 -197 q -16 -189 -28 -144 q -40 -98 -40 -62 q -40 10 -13 74 q 16 132 46 190 q 46 197 37 221 q 28 245 28 260 z m 115 138 q 103 132 83 87 q 63 42 60 23 q 58 4 57 -8 q 56 -20 56 -38 q 56 -64 60 -79 q 64 -94 75 -94 q 117 -94 152 -3 q 183 78 176 107 q 173 120 148 130 q 122 141 115 138 z"},"Q":{"x_min":0,"x_max":757,"ha":757,"o":"m 62 569 q 76 605 148 658 q 229 717 330 755 q 452 801 566 801 q 638 801 681 779 q 744 747 744 672 q 744 576 620 453 q 533 367 388 269 q 324 226 261 183 q 259 170 301 160 q 308 158 459 137 q 493 132 523 130 q 553 128 575 128 q 607 128 632 130 q 657 133 659 131 q 667 122 640 62 q 612 2 596 -12 q 589 -18 570 -21 q 552 -24 527 -24 q 476 -24 386 -10 q 297 3 206 17 q 116 31 79 31 q 60 31 30 22 q -43 0 -46 0 q -54 0 -55 4 q -57 10 -57 17 q -57 51 -28 104 q 2 156 34 167 q 46 171 62 174 q 77 176 87 176 q 101 175 106 175 q 114 175 117 178 q 143 181 274 274 q 421 378 523 473 q 653 594 653 652 q 653 661 650 669 q 643 687 607 687 q 537 687 392 622 q 254 560 254 543 q 254 532 279 516 q 304 501 300 494 q 297 490 280 485 q 216 466 192 457 q 182 453 123 427 q 86 411 84 416 q 76 434 68 479 q 60 524 60 550 q 60 561 62 569 z"},"w":{"x_min":0,"x_max":692,"ha":692,"o":"m 277 143 q 275 143 206 78 q 137 13 99 13 q 57 13 36 75 q 20 121 20 175 q 20 259 107 360 q 183 448 226 455 q 237 457 265 448 q 293 439 295 433 q 305 410 211 306 q 174 265 109 200 q 105 196 102 175 q 98 154 98 143 q 98 129 101 118 q 104 108 114 108 q 140 108 216 186 q 265 238 283 257 q 342 321 402 386 q 439 420 455 415 q 472 408 472 391 q 472 371 448 327 q 413 263 409 253 q 381 185 374 164 q 364 133 364 115 q 364 93 380 90 q 402 87 439 127 q 475 172 479 177 q 482 202 490 232 q 497 261 517 291 q 545 333 576 366 q 613 405 634 405 q 637 405 643 403 q 658 396 658 369 q 658 352 652 330 q 647 308 639 285 q 631 262 610 229 q 590 196 590 185 q 590 175 598 168 q 606 162 616 162 q 633 162 669 181 q 676 184 684 187 l 684 156 q 684 147 655 124 q 621 97 592 97 q 568 97 544 109 q 521 121 516 120 q 482 86 447 55 q 377 -7 334 -7 q 312 -7 298 8 q 289 18 284 37 q 280 56 280 76 q 280 87 281 106 q 282 124 282 129 q 282 143 277 143 z"},"E":{"x_min":0,"x_max":646,"ha":646,"o":"m 70 169 q 70 144 115 134 q 142 128 189 128 q 260 128 346 162 q 401 184 475 227 q 535 262 536 262 q 544 262 544 242 q 544 217 534 183 q 523 149 506 129 q 471 86 371 44 q 256 -4 155 -4 q 80 -4 34 23 q -11 50 -29 100 q -36 120 -36 141 q -36 187 0 236 q 37 284 100 323 q 151 353 266 394 q 283 402 300 411 q 247 412 188 427 q 68 457 68 538 q 68 637 192 715 q 317 793 471 793 q 522 793 574 782 q 625 772 629 765 q 632 761 633 740 q 634 718 634 712 q 634 689 632 677 q 631 665 627 662 q 595 640 517 604 q 482 590 448 576 l 497 634 q 503 642 494 646 q 485 650 463 650 q 396 650 312 622 q 211 588 179 539 q 172 528 172 519 q 172 480 348 474 q 523 468 523 452 q 523 423 484 384 q 465 365 459 365 q 307 365 182 292 q 70 227 70 169 z"},"s":{"x_min":0,"x_max":463,"ha":463,"o":"m 246 95 q 257 87 273 87 q 314 87 386 136 q 450 180 450 183 l 450 149 q 394 99 360 75 q 256 1 188 1 q 134 1 81 51 q 24 105 24 170 q 24 175 79 224 q 174 309 187 321 q 249 379 260 401 q 277 435 284 444 q 300 463 331 463 q 358 463 367 418 q 371 398 381 329 q 382 323 382 308 q 382 275 372 242 q 362 210 338 182 q 315 153 286 130 q 266 112 246 95 z m 255 324 q 240 324 180 266 q 120 208 120 194 q 120 180 156 150 q 191 119 198 121 q 212 125 232 145 q 252 165 259 180 q 266 194 269 214 q 272 235 272 260 q 272 288 268 306 q 263 324 255 324 z"},"l":{"x_min":0,"x_max":340,"ha":340,"o":"m 331 149 q 331 134 257 73 q 171 2 111 2 q 102 2 98 3 q 31 12 19 104 q 15 134 15 198 q 15 284 95 423 q 167 547 264 650 q 360 753 406 753 q 413 753 419 750 q 433 743 433 717 q 433 676 397 595 q 366 524 323 456 q 295 411 239 352 q 183 294 128 236 q 121 222 121 192 q 121 165 128 144 q 135 124 152 114 q 163 108 177 108 q 214 108 277 153 q 331 192 331 195 z m 249 513 q 229 481 209 449 q 186 410 186 397 q 186 393 189 390 q 199 381 230 417 q 255 446 281 487 q 302 521 320 564 q 325 588 330 612 q 317 615 282 564 q 278 559 249 513 z"},"8":{"x_min":0,"x_max":660,"ha":660,"o":"m 164 648 q 203 728 330 768 q 429 799 547 799 q 590 799 616 795 q 643 791 646 784 q 649 777 650 770 q 651 762 651 753 q 651 719 625 688 q 596 661 568 634 q 568 606 505 540 q 432 470 360 400 q 374 350 389 299 q 404 248 404 211 q 404 195 401 180 q 383 96 316 50 q 248 4 156 4 q 104 4 67 28 q 25 55 25 100 q 25 141 91 220 q 157 298 226 378 q 196 423 173 472 q 147 528 147 573 q 147 613 164 648 z m 280 608 q 257 581 257 545 q 257 491 308 462 q 318 456 413 535 q 508 614 508 631 q 508 637 477 644 q 446 650 410 650 q 368 650 332 640 q 297 630 280 608 z m 270 301 q 263 306 188 212 q 112 118 113 107 q 119 77 161 77 q 186 77 214 90 q 243 102 271 130 q 286 144 294 168 q 302 191 302 216 q 302 277 270 301 z"},"e":{"x_min":0,"x_max":392,"ha":392,"o":"m 15 166 q 15 255 79 329 q 130 388 211 428 q 278 461 319 461 q 355 461 371 444 q 382 432 382 415 q 382 332 270 257 q 149 192 133 182 q 125 177 125 163 q 125 141 146 120 q 167 100 206 100 q 249 100 319 152 q 379 197 379 200 l 379 156 q 379 141 299 76 q 205 0 133 0 q 74 0 41 62 q 15 111 15 166 z m 206 346 q 181 323 160 290 q 140 258 148 250 q 155 243 190 266 q 225 290 252 316 q 270 333 283 352 q 296 372 296 386 q 296 391 293 394 q 289 400 258 384 q 228 367 206 346 z"},"b":{"x_min":0,"x_max":412,"ha":412,"o":"m 183 554 q 250 643 326 714 q 412 795 452 795 q 456 795 462 793 q 475 787 475 764 q 475 719 431 632 q 387 545 327 467 q 290 419 228 348 q 115 220 111 212 q 107 203 107 174 q 107 145 116 122 q 126 99 147 99 q 167 99 188 118 q 204 133 210 147 q 213 154 214 185 q 214 216 218 248 q 222 280 266 328 q 309 376 350 376 q 375 376 375 348 q 375 327 357 273 q 339 219 339 202 q 339 187 348 184 q 364 179 387 190 q 391 192 398 197 l 398 158 q 398 154 371 142 q 354 134 342 132 q 331 129 308 128 q 286 127 282 123 q 239 70 194 38 q 148 5 109 5 q 58 5 36 56 q 18 98 18 175 q 18 266 64 365 q 103 448 183 554 z m 262 542 q 230 501 202 450 q 174 398 182 390 q 205 412 228 435 q 265 481 298 532 q 331 582 353 619 q 382 669 375 673 q 365 678 327 629 q 294 585 262 542 z"},"%":{"x_min":0,"x_max":660,"ha":660,"o":"m 349 334 q 263 239 184 141 q 115 55 81 3 q 78 -1 74 -1 q 59 -1 40 29 q 22 59 26 81 q 32 114 126 230 q 215 340 303 428 q 386 511 503 606 q 620 701 641 701 q 649 701 649 685 q 649 670 642 648 q 635 627 630 621 q 585 573 542 530 q 498 488 454 445 q 401 392 349 334 z m 256 137 q 264 199 340 270 q 415 342 452 332 q 486 323 502 295 q 515 272 528 249 q 533 241 533 226 q 533 168 468 87 q 399 1 336 1 q 319 1 305 8 q 277 22 266 46 q 254 71 254 105 q 254 115 254 123 q 255 131 256 137 z m 452 693 q 452 623 378 535 q 304 447 246 447 q 234 447 226 451 q 189 467 172 488 q 152 513 152 554 q 152 656 231 729 q 298 791 360 791 q 381 791 394 780 q 408 770 408 755 q 408 746 430 730 q 452 714 452 693 z m 472 272 q 460 278 429 253 q 398 228 374 197 q 355 173 341 148 q 324 118 324 99 q 324 86 332 80 q 340 73 346 73 q 363 73 389 102 q 404 119 431 156 q 453 187 464 215 q 476 243 476 261 q 476 271 472 272 z m 230 533 q 233 528 239 528 q 255 528 284 550 q 312 571 336 598 q 360 624 378 652 q 400 686 400 704 q 400 713 393 719 q 384 725 368 714 q 351 703 343 703 q 340 703 334 705 q 319 711 273 657 q 224 599 224 557 q 224 544 230 533 z"},"m":{"x_min":0,"x_max":805,"ha":805,"o":"m 198 149 q 165 103 146 77 q 110 28 79 28 q 54 28 32 79 q 11 130 11 182 q 11 232 79 326 q 140 409 161 419 q 182 429 201 429 q 227 429 249 415 q 256 411 256 402 q 256 382 190 308 q 123 233 123 208 q 123 199 128 194 q 166 224 204 254 q 311 362 343 390 q 430 466 476 466 q 500 466 511 450 q 522 435 522 415 q 522 377 479 307 q 463 274 447 242 q 454 238 516 290 q 614 373 635 389 q 704 443 724 440 q 737 438 753 415 q 769 392 769 378 q 769 357 704 272 q 638 186 638 156 q 638 133 666 126 q 684 122 738 157 q 756 168 789 193 l 789 140 q 789 130 708 68 q 619 0 579 0 q 552 0 531 17 q 510 34 510 60 q 510 93 531 140 q 552 186 574 235 q 574 241 568 243 q 557 246 501 185 q 468 149 447 131 q 432 118 396 79 q 341 20 308 20 q 303 20 288 25 q 272 30 265 41 q 258 52 258 68 q 258 103 304 180 q 351 257 351 272 q 351 279 347 282 q 333 293 285 243 q 241 196 198 149 z"},",":{"x_min":0,"x_max":170,"ha":170,"o":"m 45 -1 q 36 9 28 21 q 20 33 20 46 q 20 81 60 120 q 101 158 131 158 q 134 158 140 156 q 157 149 157 127 q 157 112 149 92 q 141 72 130 55 q 109 21 79 -10 q 41 -49 28 -41 q 26 -39 38 -25 q 50 -11 45 -1 z"},"n":{"x_min":0,"x_max":508,"ha":508,"o":"m 247 415 q 253 410 253 403 q 253 381 188 304 q 123 227 123 208 q 123 201 127 198 q 135 191 175 234 q 241 306 266 328 q 315 374 380 416 q 446 457 470 457 q 481 457 492 435 q 504 413 504 391 q 504 376 498 366 q 493 355 432 279 q 402 242 384 208 q 380 200 374 182 q 369 165 369 154 q 369 131 388 131 q 420 131 465 160 q 480 169 505 190 l 505 150 q 505 135 427 69 q 343 -2 302 -2 q 268 -2 252 22 q 237 46 237 84 q 237 118 262 163 q 309 248 306 252 q 276 228 247 204 q 222 177 198 150 q 197 149 153 96 q 102 34 66 34 q 45 34 34 80 q 23 125 23 179 q 23 248 86 336 q 138 409 165 419 q 177 421 189 422 q 201 424 205 424 q 233 424 247 415 z"},"h":{"x_min":0,"x_max":489,"ha":489,"o":"m 53 12 q 38 18 26 55 q 15 92 15 134 q 15 141 16 150 q 17 158 17 162 q 30 247 137 408 q 229 546 342 670 q 455 794 487 794 q 500 794 512 785 q 524 776 523 768 q 514 707 406 568 q 307 449 209 330 q 104 203 104 175 q 104 168 109 165 q 118 160 177 219 q 259 301 295 331 q 369 394 408 394 q 426 394 439 380 q 452 367 452 347 q 452 313 392 238 q 333 162 333 138 q 333 123 347 113 q 352 109 362 109 q 389 109 438 142 q 482 171 482 172 l 481 125 q 481 113 403 57 q 318 -4 271 -4 q 256 -4 246 3 q 224 20 224 54 q 224 92 257 161 q 287 223 284 226 q 254 201 225 177 q 175 121 126 66 q 68 5 53 12 z"},"z":{"x_min":0,"x_max":395,"ha":395,"o":"m 121 320 q 116 307 67 247 q 42 218 17 190 l 17 223 q 37 244 46 256 q 74 294 68 320 q 61 334 55 348 q 53 366 97 412 q 141 457 165 457 q 168 457 187 435 q 196 424 206 424 q 213 424 251 434 q 289 444 306 444 q 317 444 321 441 q 331 434 342 408 q 352 382 349 364 q 346 349 270 290 q 193 230 190 222 q 188 217 204 208 q 221 200 229 187 q 233 182 244 145 q 247 135 253 135 q 256 135 318 185 q 379 235 387 226 q 398 214 356 170 q 300 118 245 67 q 232 21 211 -26 q 190 -72 158 -106 q 126 -140 76 -172 q 26 -205 -3 -205 q -19 -205 -28 -195 q -38 -181 -38 -163 q -38 -137 -15 -99 q 0 -74 28 -39 q 47 -15 144 57 q 174 79 174 100 q 174 126 126 143 q 79 160 79 172 q 79 188 140 235 q 265 331 253 345 q 252 346 224 338 q 197 331 185 329 q 173 327 148 326 q 123 324 121 320 z m 72 -70 q 44 -104 42 -107 q 26 -130 32 -138 q 38 -145 54 -134 q 69 -124 98 -93 q 118 -71 127 -58 q 144 -34 144 -23 q 144 -18 141 -15 q 136 -11 112 -30 q 89 -50 72 -70 z"},"B":{"x_min":0,"x_max":777,"ha":777,"o":"m 106 683 q 125 706 270 749 q 433 797 541 797 q 645 797 703 760 q 761 723 761 657 q 761 597 690 538 q 630 488 550 460 q 483 436 382 419 q 314 407 314 395 q 314 384 395 367 q 499 346 547 325 q 629 290 629 233 q 629 161 496 80 q 362 0 241 0 q 169 0 112 32 q 48 68 48 127 q 48 170 78 226 q 111 279 144 333 q 144 342 127 351 q 86 374 83 384 q 73 417 166 436 q 258 455 264 464 q 300 519 352 562 q 403 604 426 607 q 449 610 454 610 q 474 610 474 599 q 474 588 434 546 q 395 503 392 487 q 391 483 395 481 q 399 479 408 479 q 462 479 561 523 q 670 571 670 610 q 670 671 547 671 q 504 671 383 645 q 244 615 244 591 q 244 578 222 568 q 200 557 140 542 q 109 530 86 524 q 63 517 48 517 q 21 517 21 538 q 21 557 40 590 q 59 624 106 683 z m 267 335 q 253 340 201 262 q 171 218 174 188 q 174 151 227 140 q 251 135 312 135 q 365 135 442 178 q 518 221 518 255 q 518 288 393 315 q 352 324 267 335 z"},"K":{"x_min":0,"x_max":938,"ha":938,"o":"m 15 486 q 9 494 9 510 q 9 538 23 582 q 33 614 42 632 q 58 664 109 696 q 152 723 164 723 q 169 722 172 714 q 176 707 179 706 q 253 738 342 766 q 440 797 530 797 q 547 797 571 760 q 595 723 595 707 q 595 694 562 633 q 528 572 528 564 q 576 586 625 609 q 717 657 810 706 q 913 758 923 751 q 928 748 928 740 q 928 720 900 687 q 872 654 842 639 q 753 596 726 583 q 617 530 534 487 q 430 433 421 422 q 402 399 396 389 q 384 371 382 355 q 381 347 473 291 q 594 218 657 173 q 766 96 794 42 q 797 36 797 22 q 797 -1 789 -22 q 781 -42 767 -38 q 756 -35 640 37 q 534 103 429 169 q 315 240 310 240 q 294 240 258 191 q 226 146 221 126 q 216 105 167 55 q 114 1 85 1 q 77 1 72 5 q 68 9 68 17 q 68 43 120 117 q 179 200 238 284 q 239 288 239 296 q 239 305 238 320 q 236 334 236 335 q 236 348 237 355 q 238 362 244 380 q 251 399 293 427 q 347 459 402 492 q 417 505 462 581 q 508 657 504 664 q 501 670 489 670 q 460 670 367 631 q 323 612 281 594 q 239 577 172 543 q 51 481 27 481 q 18 481 15 486 z"},"R":{"x_min":0,"x_max":849,"ha":849,"o":"m 97 700 q 134 738 260 769 q 386 800 519 800 q 700 800 780 752 q 846 713 846 640 q 846 600 824 548 q 801 497 769 470 q 715 424 586 391 q 525 375 375 351 q 275 335 275 325 q 275 315 380 276 q 544 215 581 199 q 694 150 706 118 q 707 114 710 84 q 713 55 713 35 q 713 -2 706 -8 q 693 -17 568 45 q 453 103 338 162 q 213 224 201 212 q 159 144 127 93 q 64 -6 32 1 q 22 4 22 16 q 22 42 78 138 q 134 234 134 250 q 134 261 112 266 q 91 271 91 277 q 91 306 106 326 q 122 345 152 364 q 164 372 192 376 q 221 380 231 389 q 268 424 330 518 q 392 613 385 627 q 383 629 375 629 q 349 629 298 618 q 246 606 243 599 q 239 590 245 580 q 251 571 249 568 q 244 561 202 556 q 161 552 115 552 q 53 552 50 559 q 48 566 48 578 q 48 607 61 642 q 74 676 97 700 z m 465 639 q 459 630 455 620 q 444 589 436 574 q 404 513 385 488 q 366 463 348 429 q 347 426 349 424 q 352 422 359 422 q 396 422 497 454 q 607 489 680 526 q 772 573 772 606 q 772 632 716 645 q 661 658 587 658 q 540 658 506 653 q 472 648 465 639 z"},"T":{"x_min":0,"x_max":700,"ha":700,"o":"m 571 457 q 506 344 466 262 q 426 179 431 167 q 433 159 433 154 q 433 115 392 59 q 351 3 317 3 q 313 3 305 5 q 284 13 284 47 q 284 97 328 193 q 363 269 416 355 q 474 447 530 522 q 599 614 597 628 q 595 637 559 637 q 477 637 309 602 q 141 567 137 549 q 135 541 160 532 q 184 522 184 515 q 184 509 159 505 q 134 501 102 501 q 68 501 44 508 q 20 514 20 528 q 28 615 74 696 q 87 720 226 757 q 379 798 502 798 q 602 798 648 750 q 682 714 682 662 q 682 614 645 562 q 608 510 571 457 z"},"P":{"x_min":0,"x_max":743,"ha":743,"o":"m 113 740 q 122 751 238 774 q 353 797 439 797 q 571 797 648 742 q 735 680 735 561 q 735 413 642 329 q 569 262 439 236 q 356 219 245 219 q 222 219 200 220 q 178 221 177 220 q 167 215 143 175 q 119 135 121 125 q 127 99 88 49 q 49 -1 25 -1 q 15 -1 10 6 q 6 13 6 26 q 6 54 36 115 q 65 176 96 239 q 96 245 70 274 q 57 288 57 303 q 57 311 60 320 q 71 354 114 376 q 162 395 210 415 q 214 422 273 494 q 387 633 377 645 q 374 648 361 648 q 342 648 308 642 q 274 637 189 618 q 142 608 72 586 q 25 572 23 575 q 17 584 42 630 q 74 688 113 740 z m 452 641 q 394 558 359 506 q 321 450 314 430 q 312 424 316 421 q 322 416 339 416 q 350 416 355 416 q 370 416 370 413 q 370 407 328 400 q 285 394 278 384 q 272 375 269 371 q 263 362 263 357 q 263 347 283 341 q 303 335 350 335 q 439 335 542 389 q 672 457 672 559 q 672 598 596 624 q 533 646 476 646 q 455 646 452 641 z"},"t":{"x_min":0,"x_max":340,"ha":340,"o":"m 24 185 q 64 225 101 263 q 176 340 167 360 q 164 367 133 368 q 102 369 100 375 q 94 392 122 430 q 151 468 170 478 q 179 483 205 485 q 231 487 259 490 q 268 494 300 534 q 332 574 342 580 q 356 589 386 589 q 400 589 406 585 q 412 581 412 575 q 412 564 396 541 q 363 493 365 490 q 369 484 382 484 q 390 484 398 484 q 407 483 407 475 q 409 457 375 413 q 341 369 320 361 q 308 357 290 357 q 276 357 270 357 q 252 357 247 350 q 207 290 183 237 q 156 178 156 142 q 156 113 171 98 q 178 91 190 91 q 221 91 280 135 q 299 149 333 180 l 333 139 q 333 129 254 67 q 164 -3 110 -3 q 72 -3 54 30 q 48 41 48 62 q 48 92 62 137 q 77 182 77 183 q 63 176 49 170 q 41 163 24 146 z"},"M":{"x_min":0,"x_max":1124,"ha":1124,"o":"m 4 531 q 0 542 0 557 q 0 634 81 715 q 102 726 124 737 q 126 731 120 719 q 114 707 117 705 q 183 740 248 769 q 321 802 364 802 q 392 802 410 788 q 428 773 438 748 q 447 722 447 694 q 447 638 406 536 q 400 516 395 496 q 401 495 468 566 q 551 654 601 699 q 683 772 720 772 q 731 772 736 769 q 772 748 772 702 q 772 657 737 586 q 726 564 675 476 q 664 449 654 422 q 658 420 745 506 q 858 618 916 668 q 1017 756 1051 756 q 1061 756 1084 718 q 1107 679 1105 665 q 1102 648 1075 615 q 1040 574 1005 533 q 955 472 905 397 q 863 334 831 262 q 795 181 795 137 q 795 103 814 95 q 820 92 829 92 q 865 92 951 155 q 1032 214 1035 211 q 1047 199 991 145 q 935 91 861 45 q 778 -7 733 -7 q 714 -7 701 4 q 677 27 666 54 q 656 81 656 114 q 656 183 707 277 q 739 336 800 418 q 847 481 844 484 q 836 492 791 451 q 753 416 693 351 q 641 295 590 239 q 578 226 508 138 q 419 26 388 26 q 383 26 376 31 q 366 41 360 64 q 355 88 355 116 q 355 151 364 166 q 372 182 444 286 q 531 411 569 472 q 634 576 634 606 q 634 615 629 618 q 603 629 512 531 q 435 449 356 340 q 318 288 264 208 q 211 128 190 101 q 155 56 135 51 q 115 46 98 78 q 82 109 82 162 q 81 173 154 279 q 261 434 292 484 q 366 604 366 649 q 366 661 362 668 q 357 674 343 674 q 316 674 244 634 q 180 597 113 558 q 46 520 21 520 q 7 520 4 531 z"},"g":{"x_min":0,"x_max":467,"ha":467,"o":"m 335 461 q 355 464 374 450 q 392 435 386 420 q 375 394 327 368 q 279 343 230 318 q 168 283 135 245 q 122 230 114 213 q 105 196 105 180 q 105 166 112 153 q 119 140 134 140 q 163 140 222 193 q 241 211 268 238 q 320 304 344 335 q 388 391 409 381 q 420 375 426 364 q 431 352 431 336 q 431 294 393 208 q 379 171 366 134 q 375 134 416 164 q 429 174 456 195 l 456 157 q 405 110 378 87 q 298 16 283 6 q 275 -16 264 -44 q 253 -72 228 -100 q 195 -139 159 -168 q 117 -203 94 -203 q 84 -203 80 -198 q 72 -190 72 -175 q 72 -147 105 -96 q 116 -78 140 -46 q 153 -29 176 -10 q 228 31 230 35 q 244 56 268 106 q 291 157 285 162 q 284 163 219 109 q 149 51 110 51 q 103 51 100 52 q 71 58 45 102 q 19 145 19 180 q 19 262 138 358 q 249 448 335 461 z"},"j":{"x_min":0,"x_max":306,"ha":306,"o":"m 287 494 q 269 503 269 528 q 269 541 274 556 q 278 570 288 588 q 298 605 316 620 q 333 634 351 634 q 361 634 369 629 q 384 619 384 600 q 384 590 380 576 q 375 563 369 549 q 359 525 342 508 q 324 490 304 490 q 295 490 287 494 z m 208 327 q 202 333 157 317 q 41 275 32 275 q 25 275 23 278 q 19 286 25 308 q 31 329 48 362 q 56 377 133 413 q 220 454 272 454 q 280 454 294 451 q 309 448 309 420 q 309 375 252 261 q 194 147 195 146 q 200 139 244 175 q 265 191 287 207 l 287 162 q 287 160 212 94 q 136 29 129 20 q 94 -45 63 -97 q 1 -200 -31 -200 q -40 -200 -46 -193 q -55 -181 -55 -158 q -55 -132 -46 -104 q -37 -77 -20 -56 q 57 22 73 40 q 89 58 151 185 q 217 318 208 327 z"},"i":{"x_min":0,"x_max":355,"ha":355,"o":"m 270 501 q 250 512 250 538 q 250 553 254 567 q 259 581 270 599 q 281 617 303 632 q 325 648 345 648 q 356 648 364 643 q 379 633 379 612 q 379 597 374 584 q 369 571 357 550 q 345 530 324 514 q 303 498 284 498 q 276 498 270 501 z m 208 451 q 218 452 230 453 q 241 454 242 454 q 256 454 266 450 q 275 445 277 438 q 279 430 279 423 q 279 388 242 331 q 204 274 155 238 q 129 218 129 168 q 129 141 138 124 q 148 106 168 106 q 205 106 252 136 q 300 166 346 195 q 367 178 292 87 q 214 -8 146 -8 q 128 -8 114 -1 q 65 23 44 67 q 24 111 24 176 q 24 228 100 338 q 175 447 208 451 z"},"y":{"x_min":0,"x_max":470,"ha":470,"o":"m 245 166 q 241 170 175 120 q 109 70 87 78 q 63 87 46 121 q 30 155 22 200 q 13 251 100 353 q 180 447 210 454 q 230 458 248 444 q 265 431 265 414 q 265 392 213 337 q 167 289 139 270 q 119 258 106 234 q 93 211 93 191 q 93 179 98 174 q 104 167 156 202 q 209 237 264 284 q 323 334 369 380 q 415 425 426 431 q 436 436 446 422 q 455 407 455 391 q 455 385 454 383 q 446 358 400 283 q 360 219 320 154 q 279 89 282 85 q 292 72 376 144 q 459 217 459 218 l 459 189 q 459 185 399 119 q 346 60 290 0 q 249 -43 182 -131 q 139 -187 129 -182 q 102 -170 102 -130 q 99 -100 148 -12 q 247 164 245 166 z"},".":{"x_min":0,"x_max":168,"ha":168,"o":"m 53 94 q 97 141 131 141 q 140 141 148 136 q 156 131 156 118 q 156 103 146 84 q 137 64 123 45 q 90 -1 52 -1 q 42 -1 32 5 q 21 11 21 26 q 21 41 31 60 q 41 80 53 94 z"},"p":{"x_min":0,"x_max":491,"ha":491,"o":"m -44 10 q 4 76 66 193 q 91 253 117 313 q 109 315 64 276 q 49 263 20 236 l 20 273 q 20 275 42 301 q 117 389 123 397 q 144 423 183 476 q 245 560 265 581 q 276 593 295 600 q 314 606 333 606 q 350 606 356 601 q 363 596 363 588 q 363 573 339 541 q 319 515 300 490 q 259 428 236 384 q 213 339 215 329 q 252 355 289 381 q 372 442 405 442 q 425 442 439 435 q 453 428 453 413 q 453 345 410 272 q 384 229 333 171 q 317 148 301 126 q 313 117 329 117 q 366 117 427 160 q 480 197 480 199 l 480 165 q 426 113 394 88 q 294 10 233 10 q 217 10 200 17 q 161 33 146 33 q 129 36 123 36 q 115 37 106 37 q 95 37 75 28 q 72 27 -22 -140 q -61 -209 -82 -201 q -105 -192 -105 -153 q -105 -118 -88 -72 q -70 -27 -44 10 z m 147 157 q 147 149 161 144 q 175 139 193 139 q 212 139 222 144 q 245 156 286 220 q 328 284 328 311 q 328 321 322 324 q 299 333 223 259 q 147 185 147 157 z"},"X":{"x_min":0,"x_max":797,"ha":797,"o":"m 106 662 q 144 706 285 751 q 426 796 506 796 q 528 796 538 792 q 549 787 554 748 q 560 709 560 661 q 560 622 559 600 q 558 577 557 561 q 607 604 657 647 q 760 747 776 733 q 783 727 783 715 q 783 690 757 654 q 731 619 710 606 q 688 594 612 520 q 535 445 535 438 q 529 433 520 309 q 511 185 511 126 q 511 105 513 103 q 518 98 528 98 q 545 98 621 138 q 652 154 656 147 q 669 125 580 54 q 491 -16 434 -16 q 410 -16 400 14 q 389 43 389 87 q 389 120 394 178 q 400 236 400 246 q 400 259 398 268 q 396 278 386 274 q 382 273 308 201 q 226 121 166 70 q 83 -1 60 -1 q 54 -1 51 3 q 45 14 45 26 q 45 64 86 114 q 127 165 164 182 q 202 198 310 306 q 417 415 417 426 q 423 432 428 521 q 434 610 434 645 q 434 664 408 664 q 373 664 292 626 q 266 614 218 588 q 205 585 206 566 q 206 546 199 539 q 188 528 134 510 q 81 493 54 493 q 49 493 43 495 q 39 498 39 506 q 39 531 64 586 q 89 642 106 662 z"},"*":{"x_min":0,"x_max":379,"ha":379,"o":"m 170 703 q 185 706 202 752 q 218 798 241 792 q 256 788 256 767 q 256 753 248 725 q 240 697 244 695 q 251 692 289 719 q 327 746 344 746 q 353 746 358 741 q 363 736 363 729 q 363 712 312 676 q 260 639 258 632 q 256 623 296 588 q 337 554 337 540 q 337 535 331 530 q 325 525 318 525 q 300 525 248 564 q 223 583 217 582 q 209 581 191 524 q 173 468 154 468 q 151 468 145 470 q 138 473 134 481 q 131 489 131 500 q 131 511 134 527 q 141 565 141 569 q 141 580 135 581 q 118 574 102 568 q 68 554 50 554 q 38 554 33 560 q 28 566 28 572 q 28 587 62 606 q 96 625 134 646 q 139 655 106 683 q 70 714 70 729 q 70 736 75 742 q 80 747 87 747 q 99 747 129 724 q 159 700 170 703 z"},"Y":{"x_min":0,"x_max":761,"ha":761,"o":"m 395 647 q 376 654 298 608 q 219 562 143 517 q 56 466 34 466 q 23 466 23 475 q 23 505 38 548 q 53 592 72 625 q 77 634 139 674 q 216 724 290 755 q 392 798 466 798 q 477 798 485 798 q 493 798 510 794 q 526 791 532 772 q 535 762 535 749 q 535 731 530 718 q 506 651 426 540 q 362 454 300 370 q 238 286 247 267 q 251 259 262 259 q 297 259 398 352 q 442 392 578 530 q 677 630 696 638 q 706 642 724 619 q 741 596 741 574 q 741 560 661 439 q 555 278 517 216 q 442 93 453 76 q 486 93 519 110 q 594 154 636 154 q 645 154 650 153 q 643 138 637 123 q 544 41 472 -26 q 400 -92 330 -159 q 288 -195 268 -195 q 262 -195 257 -192 q 239 -181 239 -150 q 239 -89 320 52 q 360 122 463 274 q 488 318 514 363 q 482 337 451 311 q 354 218 290 167 q 186 84 139 84 q 121 84 110 96 q 93 116 93 145 q 93 197 147 283 q 162 307 247 423 q 295 477 331 521 q 402 607 402 636 q 402 644 395 647 z"},"c":{"x_min":0,"x_max":405,"ha":405,"o":"m 20 179 q 14 247 127 352 q 240 457 327 457 q 336 457 341 456 q 383 450 383 413 q 383 368 336 312 q 289 255 262 264 q 247 269 244 282 q 240 294 226 290 q 208 285 155 238 q 102 191 102 180 q 102 131 132 110 q 153 95 186 95 q 237 95 322 149 q 395 196 395 197 l 396 153 q 343 101 311 75 q 214 -3 154 -3 q 93 -3 56 54 q 20 110 20 179 z"},"!":{"x_min":0,"x_max":466,"ha":466,"o":"m 184 302 q 189 279 172 261 q 154 243 142 243 q 130 243 116 258 q 102 272 97 290 q 89 315 151 442 q 202 547 275 671 q 345 789 357 792 q 369 794 376 794 q 406 794 430 780 q 453 766 449 747 q 445 727 376 618 q 312 518 249 419 q 182 312 184 302 z m 24 60 q 20 77 38 141 q 55 205 68 208 q 85 213 108 199 q 130 185 137 163 q 139 157 139 148 q 139 113 124 68 q 109 24 87 20 q 73 17 50 32 q 27 47 24 60 z"},"/":{"x_min":0,"x_max":765,"ha":765,"o":"m 376 356 q 322 300 252 215 q 204 156 149 84 q 116 40 84 -3 q 79 -11 70 -11 q 54 -11 39 16 q 24 44 24 70 q 24 77 25 80 q 32 116 133 242 q 229 361 326 458 q 427 559 570 677 q 726 806 749 800 q 754 799 754 784 q 754 766 747 740 q 740 715 730 706 q 693 671 597 577 q 534 515 465 446 q 396 377 376 356 z"},"6":{"x_min":0,"x_max":620,"ha":620,"o":"m 421 644 q 370 604 329 563 q 280 513 287 501 q 289 498 308 504 q 366 522 398 522 q 419 522 438 517 q 458 512 477 499 q 510 476 524 442 q 539 407 539 364 q 539 306 514 245 q 488 184 449 142 q 390 79 329 39 q 262 -5 212 -5 q 204 -4 200 -4 q 141 2 83 61 q 22 123 14 189 q 11 215 11 239 q 11 383 124 523 q 207 625 337 714 q 406 761 465 789 q 485 798 545 798 q 571 798 590 795 q 608 792 608 786 q 608 775 562 746 q 505 710 421 644 z m 417 435 q 411 443 396 443 q 365 443 316 414 q 268 386 222 334 q 189 297 174 272 q 144 223 144 177 q 144 161 148 144 q 152 128 161 112 q 165 104 178 104 q 207 104 262 144 q 318 185 350 224 q 383 264 404 316 q 425 367 425 403 q 425 426 417 435 z"},"r":{"x_min":0,"x_max":444,"ha":444,"o":"m 151 269 q 128 218 72 169 q 45 151 19 133 l 19 173 q 39 186 48 195 q 77 222 77 247 q 77 256 70 269 q 64 282 64 289 q 64 344 119 405 q 170 461 202 461 q 212 461 214 444 q 217 428 221 422 q 225 415 244 415 q 263 415 310 424 q 356 434 367 434 q 370 434 373 434 q 377 432 378 432 q 395 426 406 392 q 418 357 413 348 q 407 337 389 321 q 347 282 319 229 q 311 212 302 188 q 292 164 292 149 q 292 133 300 124 q 309 115 329 115 q 358 115 398 147 q 411 157 432 179 l 432 137 q 432 123 371 68 q 301 5 255 5 q 225 5 206 35 q 188 65 188 101 q 188 157 232 224 q 254 256 276 288 q 276 294 259 294 q 233 294 193 284 q 153 274 151 269 z"},"2":{"x_min":0,"x_max":650,"ha":650,"o":"m 142 478 q 134 486 134 507 q 134 544 159 610 q 180 666 192 682 q 216 714 310 751 q 416 793 506 793 q 585 793 616 736 q 639 694 639 613 q 639 546 602 497 q 575 461 509 416 q 449 375 389 335 q 350 306 276 257 q 207 211 173 185 q 127 150 127 136 q 127 131 142 131 q 170 131 246 146 q 322 162 400 178 q 479 194 500 194 q 511 194 513 191 q 521 174 497 122 q 470 65 436 44 q 401 23 305 10 q 209 -3 132 -3 q 89 -3 78 1 q 52 10 34 50 q 17 89 17 133 q 17 190 120 284 q 204 360 281 404 q 358 448 434 492 q 509 535 536 558 q 573 589 573 616 q 573 625 567 636 q 561 647 545 652 q 529 658 506 658 q 440 658 352 626 q 265 594 257 568 q 286 551 307 540 q 328 529 322 520 q 315 510 247 493 q 179 476 152 476 q 144 476 142 478 z"},"9":{"x_min":0,"x_max":572,"ha":572,"o":"m 16 484 q 33 579 127 657 q 203 720 309 759 q 398 792 451 792 q 460 792 474 790 q 487 787 522 742 q 557 697 557 676 q 557 655 502 613 q 447 571 436 582 q 429 589 444 610 q 463 635 463 640 q 463 645 459 646 q 440 654 356 618 q 273 583 210 532 q 132 468 132 408 q 132 399 134 386 q 136 373 163 373 q 217 373 345 458 q 460 534 479 562 q 481 565 493 565 q 513 565 533 558 q 553 551 551 541 q 547 522 451 387 q 342 233 255 133 q 140 0 97 0 q 80 0 80 17 q 80 44 103 82 q 126 121 145 126 q 164 131 252 244 q 292 303 333 363 q 329 366 251 324 q 173 283 134 286 q 102 286 60 347 q 15 412 15 466 q 15 478 16 484 z"}," ":{"x_min":0,"x_max":340,"ha":340,"o":""},"I":{"x_min":0,"x_max":526,"ha":526,"o":"m 200 450 q 205 440 152 398 q 98 356 87 361 q 31 387 14 429 q 10 437 10 451 q 10 536 145 663 q 287 796 403 796 q 466 796 494 766 q 522 736 522 681 q 522 596 456 451 q 409 347 334 221 q 300 164 266 107 q 264 80 240 42 q 217 3 199 3 q 181 3 160 20 q 138 38 142 50 q 146 60 225 201 q 319 368 366 462 q 441 612 441 655 q 441 669 434 672 q 426 675 416 675 q 359 675 252 584 q 150 498 154 476 q 156 466 176 461 q 197 456 200 450 z"},"H":{"x_min":0,"x_max":942,"ha":942,"o":"m 226 545 q 158 513 91 482 q 32 457 22 460 q 10 464 10 493 q 10 523 22 561 q 35 599 51 617 q 99 668 275 727 q 471 793 627 793 q 672 793 692 765 q 712 737 712 686 q 712 678 712 670 q 710 658 710 652 q 706 611 655 543 q 637 519 563 435 q 516 382 520 375 q 521 371 549 371 q 583 371 614 374 q 646 377 657 382 q 668 387 740 482 q 830 601 868 648 q 904 679 940 710 q 941 706 941 696 q 941 654 892 578 q 875 551 803 454 q 757 392 763 384 q 768 377 816 370 q 863 363 866 358 q 872 346 823 288 q 774 229 759 222 q 755 220 749 219 q 742 218 725 218 q 703 219 693 219 q 671 219 660 214 q 649 209 635 180 q 621 151 611 121 q 607 110 603 78 q 599 46 584 34 q 569 22 544 16 q 520 9 498 9 q 485 9 483 12 q 480 17 480 25 q 480 46 498 97 q 534 200 531 205 q 530 209 502 209 q 468 209 414 203 q 359 197 348 194 q 338 190 295 133 q 245 66 195 -1 q 189 -7 165 8 q 141 24 141 42 q 141 53 181 109 q 221 165 216 171 q 211 177 171 186 q 131 195 128 205 q 125 215 125 220 q 125 234 134 250 q 144 266 160 280 q 175 295 230 307 q 358 336 363 339 q 385 355 450 425 q 529 510 569 563 q 628 641 628 670 q 627 685 591 685 q 526 685 381 638 q 244 594 231 576 q 229 573 230 565 q 231 557 231 553 q 231 546 226 545 z"},"4":{"x_min":0,"x_max":665,"ha":665,"o":"m 20 266 q 20 374 168 506 q 284 610 455 701 q 608 783 644 776 q 653 775 656 730 q 658 684 658 639 q 656 620 613 549 q 574 487 536 422 q 497 358 503 346 q 509 335 554 332 q 598 329 601 325 q 605 320 605 310 q 605 287 585 256 q 565 226 537 206 q 523 196 449 186 q 415 181 409 175 q 407 173 394 94 q 381 14 369 3 q 341 -22 298 -22 q 263 -22 255 -4 q 252 4 252 16 q 252 34 256 57 q 267 121 267 131 q 267 148 262 154 q 258 161 239 161 q 236 161 176 156 q 152 154 130 154 q 107 154 96 155 q 86 156 68 163 q 49 170 34 200 q 20 231 20 266 z m 442 479 q 490 542 556 615 q 591 654 588 667 q 587 672 579 672 q 547 672 438 594 q 329 516 243 432 q 145 338 152 305 q 153 298 167 295 q 181 292 203 292 q 240 292 282 300 q 323 308 332 318 q 340 329 388 402 q 412 439 442 479 z"},"D":{"x_min":0,"x_max":837,"ha":837,"o":"m 68 674 q 108 712 192 743 q 317 790 472 790 q 631 790 723 722 q 825 646 825 495 q 825 352 705 229 q 603 124 445 59 q 303 0 192 0 q 134 0 109 8 q 68 21 63 62 q 62 66 62 75 q 62 126 109 214 q 141 275 202 361 q 234 407 264 446 q 392 611 392 616 q 392 621 387 624 q 381 627 330 620 q 279 612 247 600 q 232 583 217 567 q 187 552 157 537 q 88 513 56 513 q 44 513 40 517 q 35 522 35 543 q 35 573 46 618 q 57 664 68 674 z m 755 473 q 755 555 652 599 q 575 632 490 632 q 459 632 457 626 q 451 594 410 536 q 368 479 328 424 q 278 351 228 279 q 171 191 171 155 q 171 141 180 135 q 202 121 252 121 q 343 121 454 160 q 580 205 660 278 q 755 366 755 473 z"},"0":{"x_min":0,"x_max":629,"ha":629,"o":"m 16 206 q 16 360 111 505 q 191 626 313 710 q 424 786 498 786 q 521 786 549 760 q 569 741 580 722 q 602 685 612 644 q 622 602 622 555 q 622 478 595 396 q 568 315 516 236 q 448 132 346 63 q 252 0 186 0 q 112 0 62 66 q 16 127 16 206 z m 535 664 q 529 666 525 666 q 510 666 458 633 q 435 619 424 621 q 397 626 334 565 q 282 514 226 440 q 182 383 152 306 q 121 229 121 171 q 121 124 144 105 q 153 97 171 97 q 216 97 295 165 q 358 219 427 302 q 485 371 522 464 q 556 550 556 611 q 556 656 535 664 z"},"F":{"x_min":0,"x_max":650,"ha":650,"o":"m 190 568 q 176 557 124 540 q 24 507 19 513 q 12 521 12 537 q 12 569 37 614 q 62 660 97 691 q 146 736 295 764 q 444 793 585 793 q 618 793 632 771 q 641 756 641 731 q 641 668 597 582 q 553 496 509 413 q 513 406 527 406 q 537 406 542 406 q 555 406 555 400 q 555 395 534 363 q 509 325 486 305 q 482 301 459 300 q 436 299 425 293 q 389 253 353 213 q 270 121 213 69 q 128 -8 89 -8 q 79 -8 72 -4 q 67 -1 67 9 q 67 40 110 96 q 154 151 185 151 q 221 151 288 235 q 299 257 310 280 q 304 282 295 282 q 289 282 228 277 q 204 275 184 275 q 149 275 146 284 q 144 293 144 296 q 144 309 157 327 q 164 336 171 346 q 185 366 257 385 q 339 402 421 420 q 438 425 490 529 q 543 633 534 651 q 528 662 491 662 q 427 662 310 634 q 192 606 181 593 q 176 587 181 581 q 191 569 190 568 z"},"k":{"x_min":0,"x_max":496,"ha":496,"o":"m 23 206 q 38 297 146 450 q 235 576 352 696 q 462 809 487 803 q 501 799 501 781 q 501 732 392 581 q 354 529 191 323 q 87 192 94 185 q 101 179 166 246 q 254 337 303 378 q 390 452 440 452 q 459 452 474 424 q 489 396 489 365 q 489 359 489 356 q 485 316 390 238 q 296 159 296 142 q 296 126 309 114 q 322 103 341 95 q 358 88 420 130 q 481 172 481 174 l 481 135 q 481 125 409 65 q 328 -2 284 -2 q 251 -2 223 38 q 195 86 168 135 q 160 139 115 80 q 70 21 50 24 q 39 26 30 74 q 21 121 21 171 q 21 196 23 206 z m 290 291 q 268 269 246 247 q 221 219 221 203 q 221 198 224 192 q 228 185 237 185 q 249 185 266 197 q 274 203 320 243 q 348 269 364 287 q 389 315 389 331 q 389 339 383 345 q 380 348 374 348 q 362 348 345 337 q 321 322 290 291 z"},"u":{"x_min":0,"x_max":506,"ha":506,"o":"m 22 178 q 28 229 84 311 q 137 389 167 403 q 186 410 224 410 q 252 410 257 401 q 264 385 242 353 q 220 321 177 280 q 147 251 122 212 q 96 174 96 152 q 96 142 102 138 q 108 133 113 133 q 134 133 176 167 q 218 201 275 264 q 339 335 358 356 q 401 403 426 425 q 456 452 470 452 q 476 452 481 435 q 486 418 486 402 q 486 390 484 387 q 471 364 458 347 q 434 317 412 284 q 390 252 373 213 q 356 174 356 148 q 356 124 372 117 q 384 112 420 133 q 491 175 491 181 l 491 141 q 491 127 433 69 q 364 0 309 0 q 296 0 289 2 q 266 8 257 27 q 248 46 248 74 q 248 93 251 119 q 254 145 251 146 q 225 116 198 85 q 142 21 104 21 q 65 21 43 62 q 21 103 21 156 q 21 171 22 178 z"},"U":{"x_min":0,"x_max":915,"ha":915,"o":"m 94 637 q 125 676 232 724 q 367 784 495 784 q 535 784 553 760 q 567 741 567 706 q 567 685 564 670 q 560 654 554 639 q 528 582 446 469 q 378 378 311 286 q 244 194 244 169 q 244 162 246 160 q 250 156 258 156 q 299 156 445 298 q 537 388 702 564 q 838 709 848 711 q 867 714 882 694 q 896 674 896 651 q 896 625 821 511 q 692 314 680 295 q 604 168 604 114 q 604 84 628 74 q 636 71 645 71 q 680 71 753 122 q 826 172 832 169 q 812 135 792 102 q 664 -25 561 -25 q 518 -25 501 12 q 490 36 490 78 q 490 121 526 194 q 540 224 590 309 q 622 364 616 370 q 568 327 521 284 q 400 156 340 101 q 229 0 179 0 q 139 0 116 36 q 94 73 94 115 q 94 166 183 289 q 220 340 344 494 q 428 599 421 610 q 414 620 336 580 q 258 539 180 498 q 82 450 45 450 q 26 450 20 460 q 13 469 13 481 q 13 511 44 564 q 67 604 94 637 z"},"o":{"x_min":0,"x_max":499,"ha":499,"o":"m 307 458 q 335 458 352 449 q 376 436 376 408 q 375 402 375 399 q 374 390 388 380 q 402 371 404 358 q 405 346 405 340 q 405 334 405 329 q 405 288 393 250 q 378 210 364 170 q 364 161 371 157 q 390 146 441 190 q 492 235 492 238 l 492 202 q 492 196 460 164 q 423 127 392 112 q 375 104 350 98 q 324 91 317 89 q 280 52 236 26 q 192 0 137 0 q 84 0 51 58 q 22 108 22 169 q 22 290 138 382 q 234 458 307 458 z m 115 94 q 131 79 155 79 q 173 79 193 88 q 213 97 236 113 q 245 119 245 160 q 245 202 248 222 q 252 242 274 299 q 291 343 283 347 q 273 352 220 311 q 162 266 140 228 q 126 203 117 172 q 108 142 108 119 q 108 100 115 94 z"},"N":{"x_min":0,"x_max":840,"ha":840,"o":"m 0 507 q -1 512 -1 522 q -1 583 83 659 q 146 716 186 731 q 191 733 191 727 q 191 721 191 719 q 191 712 193 710 q 248 740 312 765 q 383 793 434 793 q 440 793 448 792 q 456 791 460 791 q 515 781 515 727 q 515 674 461 578 q 430 524 362 424 q 311 350 315 346 q 340 365 365 384 q 516 540 529 551 q 610 620 667 662 q 746 720 781 726 q 792 728 812 692 q 833 657 833 643 q 825 579 748 468 q 678 373 608 279 q 534 175 534 131 q 534 111 544 100 q 555 89 572 89 q 602 89 656 127 q 762 202 764 200 q 775 191 723 131 q 667 66 600 18 q 517 -41 456 -41 q 444 -41 438 -40 q 414 -36 402 -20 q 391 -5 391 20 q 391 78 447 185 q 459 208 503 283 q 522 315 624 455 q 650 506 676 557 q 661 564 612 525 q 572 493 508 431 q 453 376 398 322 q 357 281 297 210 q 216 112 208 104 q 165 56 148 53 q 138 51 115 70 q 92 90 92 105 q 92 128 167 240 q 222 322 237 349 q 258 386 308 466 q 390 596 390 622 q 390 630 384 633 q 378 636 366 637 q 355 638 354 638 q 310 638 232 603 q 219 597 100 536 q 30 500 11 500 q 1 500 0 507 z"},"G":{"x_min":0,"x_max":715,"ha":715,"o":"m 18 291 q 18 432 149 559 q 254 661 423 733 q 571 796 662 796 q 674 796 682 795 q 689 794 696 770 q 702 746 702 718 q 702 689 694 678 q 686 666 606 620 q 525 573 518 580 q 513 585 531 609 q 549 633 547 640 q 487 616 428 593 q 304 518 217 428 q 105 313 105 223 q 105 195 129 195 q 171 195 282 278 q 353 331 472 435 q 572 522 578 525 q 592 531 621 512 q 640 500 644 485 q 648 473 603 394 q 558 314 515 239 q 469 158 471 153 q 509 170 547 187 q 618 233 619 232 q 633 217 563 159 q 478 94 393 29 q 387 17 338 -39 q 278 -108 231 -147 q 164 -204 128 -204 q 111 -204 102 -192 q 92 -179 92 -161 q 92 -109 176 -28 q 244 38 282 56 q 293 61 368 182 q 443 302 432 313 q 429 317 368 269 q 280 200 240 174 q 159 122 116 122 q 75 122 46 176 q 18 229 18 291 z"},"q":{"x_min":0,"x_max":459,"ha":459,"o":"m 123 348 q 178 392 252 418 q 327 445 377 445 q 402 445 414 424 q 426 402 426 370 q 426 353 423 338 q 414 296 367 234 q 320 171 320 157 q 320 153 324 147 q 334 135 395 175 q 415 188 455 218 l 455 184 q 430 160 418 149 q 380 114 373 111 q 372 83 356 36 q 341 -10 298 -63 q 250 -124 189 -165 q 134 -202 104 -202 q 87 -202 76 -185 q 66 -168 63 -144 q 59 -119 104 -50 q 112 -38 188 68 q 232 129 225 134 q 204 119 180 103 q 130 70 94 70 q 66 70 44 104 q 23 137 23 176 q 23 186 24 191 q 31 240 56 278 q 78 312 123 348 z m 278 71 q 260 77 235 40 q 220 13 213 2 q 194 -27 176 -56 q 158 -86 164 -96 q 169 -105 208 -82 q 246 -59 262 -30 q 279 -1 282 6 q 294 32 294 47 q 294 65 278 71 z m 190 294 q 123 251 111 233 q 93 207 93 166 q 93 151 106 151 q 121 151 147 166 q 173 182 233 229 q 279 265 314 303 q 354 347 351 362 q 321 354 291 346 q 231 321 190 294 z"},"d":{"x_min":0,"x_max":569,"ha":569,"o":"m 392 446 q 399 449 442 531 q 495 632 526 680 q 577 759 604 759 q 610 759 613 757 q 630 747 630 722 q 630 680 584 594 q 568 564 494 444 q 443 361 437 338 q 421 281 407 224 q 393 168 393 138 q 393 115 400 106 q 406 98 416 98 q 443 98 500 140 q 558 181 558 183 l 558 140 q 518 92 492 68 q 413 -4 351 -4 q 313 -4 307 84 q 301 172 300 172 q 292 175 217 93 q 142 11 115 15 q 77 20 50 70 q 24 121 24 180 q 24 250 93 320 q 148 375 232 418 q 305 455 339 455 q 351 455 363 449 q 375 443 381 443 q 386 443 392 446 z m 152 239 q 140 217 133 200 q 119 167 119 148 q 119 126 136 123 q 148 121 194 157 q 241 193 280 234 q 320 274 338 304 q 357 335 351 347 q 345 359 255 311 q 165 263 152 239 z"},"1":{"x_min":0,"x_max":435,"ha":435,"o":"m 147 625 q 145 630 149 649 q 153 668 159 678 q 165 687 259 742 q 359 800 380 800 q 396 800 410 770 q 425 740 423 720 q 417 668 352 548 q 296 445 240 342 q 171 213 144 119 q 134 59 124 -1 q 111 -9 59 29 q 33 48 20 61 q 12 69 12 94 q 12 205 116 399 q 153 468 201 540 q 231 583 262 627 q 283 659 277 667 q 270 677 210 648 q 150 618 147 625 z"},"5":{"x_min":0,"x_max":697,"ha":697,"o":"m 668 799 q 691 799 691 779 q 691 755 664 718 q 638 681 608 657 q 598 649 570 646 q 541 643 504 643 q 482 643 460 643 q 439 643 418 644 q 398 644 382 643 q 366 642 353 638 q 340 634 304 587 q 268 540 271 530 q 274 522 289 522 q 303 522 352 532 q 400 543 421 543 q 497 543 543 494 q 589 445 589 370 q 589 239 502 148 q 430 73 308 32 q 209 -1 113 -1 q 80 -1 57 4 q 34 8 24 30 q 14 53 14 84 q 14 110 22 138 q 30 166 90 196 q 150 225 186 225 q 198 225 201 220 q 204 214 164 193 q 124 172 128 157 q 131 149 153 149 q 238 149 367 214 q 518 290 518 374 q 518 402 496 410 q 474 419 437 419 q 416 419 407 419 q 372 419 325 408 q 214 382 211 382 q 199 382 195 387 q 177 411 163 449 q 149 487 149 515 q 149 547 253 673 q 357 799 390 799 z"}}}
